<svg width="113" height="89" viewBox="0 0 113 89" fill="none" xmlns="http://www.w3.org/2000/svg">
<g id="Group 54" opacity="0.5">
<g id="Group 47">
<circle id="Ellipse 15" cx="2.5" cy="2.5" r="2.5" fill="#6B2C88"/>
<circle id="Ellipse 16" cx="20.5" cy="2.5" r="2.5" fill="#6B2C88"/>
<circle id="Ellipse 17" cx="38.5" cy="2.5" r="2.5" fill="#6B2C88"/>
<circle id="Ellipse 18" cx="56.5" cy="2.5" r="2.5" fill="#6B2C88"/>
<circle id="Ellipse 19" cx="74.5" cy="2.5" r="2.5" fill="#6B2C88"/>
<circle id="Ellipse 20" cx="92.5" cy="2.5" r="2.5" fill="#6B2C88"/>
<circle id="Ellipse 21" cx="110.5" cy="2.5" r="2.5" fill="#6B2C88"/>
</g>
<g id="Group 48">
<circle id="Ellipse 15_2" cx="2.5" cy="23.5" r="2.5" fill="#6B2C88"/>
<circle id="Ellipse 16_2" cx="20.5" cy="23.5" r="2.5" fill="#6B2C88"/>
<circle id="Ellipse 17_2" cx="38.5" cy="23.5" r="2.5" fill="#6B2C88"/>
<circle id="Ellipse 18_2" cx="56.5" cy="23.5" r="2.5" fill="#6B2C88"/>
<circle id="Ellipse 19_2" cx="74.5" cy="23.5" r="2.5" fill="#6B2C88"/>
<circle id="Ellipse 20_2" cx="92.5" cy="23.5" r="2.5" fill="#6B2C88"/>
<circle id="Ellipse 21_2" cx="110.5" cy="23.5" r="2.5" fill="#6B2C88"/>
</g>
<g id="Group 49">
<circle id="Ellipse 15_3" cx="2.5" cy="44.5" r="2.5" fill="#6B2C88"/>
<circle id="Ellipse 16_3" cx="20.5" cy="44.5" r="2.5" fill="#6B2C88"/>
<circle id="Ellipse 17_3" cx="38.5" cy="44.5" r="2.5" fill="#6B2C88"/>
<circle id="Ellipse 18_3" cx="56.5" cy="44.5" r="2.5" fill="#6B2C88"/>
<circle id="Ellipse 19_3" cx="74.5" cy="44.5" r="2.5" fill="#6B2C88"/>
<circle id="Ellipse 20_3" cx="92.5" cy="44.5" r="2.5" fill="#6B2C88"/>
<circle id="Ellipse 21_3" cx="110.5" cy="44.5" r="2.5" fill="#6B2C88"/>
</g>
<g id="Group 50">
<circle id="Ellipse 15_4" cx="2.5" cy="65.5" r="2.5" fill="#6B2C88"/>
<circle id="Ellipse 16_4" cx="20.5" cy="65.5" r="2.5" fill="#6B2C88"/>
<circle id="Ellipse 17_4" cx="38.5" cy="65.5" r="2.5" fill="#6B2C88"/>
<circle id="Ellipse 18_4" cx="56.5" cy="65.5" r="2.5" fill="#6B2C88"/>
<circle id="Ellipse 19_4" cx="74.5" cy="65.5" r="2.5" fill="#6B2C88"/>
<circle id="Ellipse 20_4" cx="92.5" cy="65.5" r="2.5" fill="#6B2C88"/>
<circle id="Ellipse 21_4" cx="110.5" cy="65.5" r="2.5" fill="#6B2C88"/>
</g>
<g id="Group 51">
<circle id="Ellipse 15_5" cx="2.5" cy="86.5" r="2.5" fill="#6B2C88"/>
<circle id="Ellipse 16_5" cx="20.5" cy="86.5" r="2.5" fill="#6B2C88"/>
<circle id="Ellipse 17_5" cx="38.5" cy="86.5" r="2.5" fill="#6B2C88"/>
<circle id="Ellipse 18_5" cx="56.5" cy="86.5" r="2.5" fill="#6B2C88"/>
<circle id="Ellipse 19_5" cx="74.5" cy="86.5" r="2.5" fill="#6B2C88"/>
<circle id="Ellipse 20_5" cx="92.5" cy="86.5" r="2.5" fill="#6B2C88"/>
<circle id="Ellipse 21_5" cx="110.5" cy="86.5" r="2.5" fill="#6B2C88"/>
</g>
</g>
</svg>
